# xmcd
#
# Track frame offsets:
#	150
#	15164
#	28075
#	37618
#	56687
#	73092
#	86365
#	95147
#	107128
#	120390
#	133278
#	149538
#	161398
#	177703
#	190290
#	206478
#	223976
#	238734
#	251855
#
# Disc length: 3557 seconds
#
# Revision: 1
# Processed by: cddbd v1.5.2PL0 Copyright (c) Steve Scherf et al.
# Submitted via: audiograbber 1.81.01
#
DISCID=1a0de313
DTITLE=Ray Charles - Greatest Hits (LP quality)
DYEAR=2006
DGENRE=
TTITLE0=Here we go again
TTITLE1=Unchain my heart
TTITLE2=Busted
TTITLE3=I can't stop loving you
TTITLE4=Georgia on my mind
TTITLE5=Take this chains from my heart
TTITLE6=Hit the road Jack
TTITLE7=Togrther again
TTITLE8=Crying time
TTITLE9=Makin belive
TTITLE10=Sweet memories
TTITLE11=Neverending song of love
TTITLE12=Take me home country roads
TTITLE13=Yesterday
TTITLE14=Crazy old soldier
TTITLE15=Seven spanish angels
TTITLE16=Hang your head in shame
TTITLE17=Worried mind
TTITLE18=Born to lose
EXTD=This songs are grabbed from LP, and quality is not CD !
EXTT0=
EXTT1=
EXTT2=
EXTT3=
EXTT4=
EXTT5=
EXTT6=
EXTT7=
EXTT8=
EXTT9=
EXTT10=
EXTT11=
EXTT12=
EXTT13=
EXTT14=
EXTT15=
EXTT16=
EXTT17=
EXTT18=
PLAYORDER=
